PathFileType	4	(X/Y/Z)	OpenSim_Sub09_EMGStiffKnee_Magnet.trc
DataRate	CameraRate	NumFrames	NumMarkers	Units	OrigDataRate	OrigDataStartFrame	OrigNumFrames
100	100	23	8	m	100	2845	7584
Frame#	Time	torso_imu_offset_imu	pelvis_imu_offset_imu	tibia_r_imu_offset_imu	femur_r_imu_offset_imu	tibia_l_imu_offset_imu	femur_l_imu_offset_imu	toes_r_imu_offset_imu	toes_l_imu_offset_imu
				X1	Y1	Z1	X2	Y2	Z2	X3	Y3	Z3	X4	Y4	Z4	X5	Y5	Z5	X6	Y6	Z6	X7	Y7	Z7	X8		Y8	Z8	

2845	28.44000000	-0.88749258	-0.29571611	0.05820273	-0.55564042	0.35286985	-0.68068549	-0.66890162	-0.53868271	-0.17934515	-0.81936487	-0.24526497	-0.10852280	-0.57381769	0.55291050	0.22246466	-0.64755489	0.44436329	0.30912982	-0.62309974	-0.05547877	-0.47963134	-0.74840441	-0.12419979	-0.34757320
2846	28.45000000	-0.88122010	-0.29559089	0.07549602	-0.54655824	0.34622719	-0.68051075	-0.67954700	-0.52136578	-0.18732189	-0.82126332	-0.24589335	-0.09757489	-0.56960752	0.56250833	0.21969474	-0.63738889	0.44295665	0.30419320	-0.61042856	-0.04701845	-0.50124001	-0.75503191	-0.11788035	-0.34609291
2847	28.46000000	-0.88281130	-0.29168098	0.07899355	-0.54359248	0.34793564	-0.68495674	-0.69479260	-0.50319485	-0.19649857	-0.82346604	-0.24144250	-0.09667079	-0.56607573	0.56960290	0.22353128	-0.63215190	0.44874831	0.30865595	-0.59409862	-0.03860836	-0.51416197	-0.75319421	-0.11135631	-0.34358478
2848	28.47000000	-0.88296409	-0.28933290	0.08066270	-0.54420424	0.34638531	-0.68531993	-0.70420262	-0.47996684	-0.20460836	-0.82575717	-0.24560294	-0.09679550	-0.55036424	0.57877403	0.21923396	-0.63058222	0.45327936	0.30210952	-0.58151171	-0.03200469	-0.52852057	-0.76204892	-0.10422562	-0.34352379
2849	28.48000000	-0.88527376	-0.28942714	0.08496797	-0.53539156	0.34209650	-0.68717852	-0.71902880	-0.46509565	-0.20903588	-0.82198610	-0.23964171	-0.09512726	-0.55204183	0.57937323	0.21673412	-0.62425128	0.46184160	0.30847333	-0.56893725	-0.02757211	-0.54314387	-0.76068272	-0.10612759	-0.34335825
2850	28.49000000	-0.88312351	-0.28559854	0.09094966	-0.53839865	0.33849799	-0.69125234	-0.72891002	-0.44683555	-0.22124295	-0.81940541	-0.24282822	-0.08848922	-0.54384699	0.58300326	0.20994663	-0.62209504	0.46675802	0.29862617	-0.56046101	-0.02152077	-0.55818182	-0.76015444	-0.10235577	-0.34568083
2851	28.50000000	-0.88943517	-0.27903816	0.09981014	-0.54130789	0.32765116	-0.69814821	-0.73383186	-0.42778115	-0.22039869	-0.82093165	-0.24398854	-0.08121464	-0.54369545	0.59162570	0.20904152	-0.61772128	0.47073094	0.29272704	-0.54877600	-0.01466368	-0.56666909	-0.76474774	-0.09792041	-0.34201560
2852	28.51000000	-0.88813925	-0.27903338	0.10050768	-0.53506116	0.32933319	-0.69831359	-0.74050233	-0.41089370	-0.22284583	-0.82795613	-0.23721237	-0.08078004	-0.53539077	0.59879734	0.20649016	-0.61762691	0.47950044	0.29298614	-0.53575539	-0.01450715	-0.57894224	-0.76729525	-0.09164786	-0.33513825
2853	28.52000000	-0.88584431	-0.26889072	0.10144848	-0.53214206	0.32355595	-0.70271081	-0.74732516	-0.39240854	-0.22355441	-0.82385564	-0.24514747	-0.08310174	-0.53281938	0.60074958	0.20618012	-0.61608370	0.48414433	0.28830120	-0.52977247	-0.00654669	-0.58753816	-0.77167481	-0.08710348	-0.33271175
2854	28.53000000	-0.88987522	-0.26631758	0.11014205	-0.53265679	0.32143521	-0.70229260	-0.75437744	-0.37463719	-0.22621879	-0.82386920	-0.24018451	-0.07906322	-0.52645641	0.61119766	0.20348799	-0.61194354	0.49059780	0.28848567	-0.51544685	-0.00228085	-0.59779600	-0.77652556	-0.08259586	-0.32610947
2855	28.54000000	-0.89270756	-0.26191783	0.11277356	-0.52561154	0.31352172	-0.71358704	-0.75697967	-0.37218133	-0.22865457	-0.81988068	-0.23505694	-0.07655636	-0.52510158	0.61850170	0.20329343	-0.60966488	0.49517513	0.27969171	-0.50858891	0.01153709	-0.60521789	-0.77896925	-0.08040244	-0.32410733
2856	28.55000000	-0.89023892	-0.26376391	0.11469883	-0.52934661	0.30876436	-0.70973068	-0.75761520	-0.35998695	-0.22755521	-0.82358647	-0.23735096	-0.07452772	-0.50936657	0.62421326	0.19611373	-0.60970867	0.50111756	0.27728109	-0.50637518	0.01908342	-0.60139360	-0.78351366	-0.07598118	-0.31311608
2857	28.56000000	-0.89474141	-0.26058397	0.12121922	-0.52553970	0.30291456	-0.71528111	-0.75731727	-0.35919402	-0.22071452	-0.82012271	-0.23342837	-0.06858312	-0.51141146	0.64002524	0.19752838	-0.60779266	0.50844365	0.26591528	-0.50659783	0.01684297	-0.60674768	-0.78603070	-0.07579214	-0.31027837
2858	28.57000000	-0.89076494	-0.25177590	0.12112794	-0.52662747	0.29813855	-0.71838302	-0.76172718	-0.35500935	-0.21853289	-0.82165158	-0.23336990	-0.05455133	-0.49902926	0.63886561	0.18884452	-0.60771029	0.50601571	0.26946292	-0.50247525	0.02472362	-0.60964710	-0.78784089	-0.07609862	-0.30406983
2859	28.58000000	-0.89882492	-0.24956661	0.12307636	-0.52956151	0.29844665	-0.71623094	-0.75993525	-0.36078881	-0.21394450	-0.82408562	-0.22596948	-0.05381871	-0.49409179	0.64425214	0.18972710	-0.60611829	0.51650131	0.26567794	-0.50778547	0.02398445	-0.60803046	-0.79464936	-0.07217718	-0.29527491
2860	28.59000000	-0.89765180	-0.24193850	0.12481924	-0.52442923	0.28643752	-0.71723983	-0.75729480	-0.36280117	-0.21181018	-0.82457668	-0.21684716	-0.05056813	-0.48403274	0.65354293	0.18607357	-0.60422648	0.51899743	0.26319984	-0.51542420	0.01375418	-0.60058913	-0.79725676	-0.06560026	-0.28218023
2861	28.60000000	-0.89987629	-0.22911173	0.12918449	-0.53031571	0.28171444	-0.72416382	-0.75917333	-0.37274562	-0.19758385	-0.82405943	-0.21716980	-0.04148605	-0.47235800	0.66016130	0.17427103	-0.59782743	0.52977589	0.25709755	-0.53615375	0.00630753	-0.57895892	-0.80209893	-0.06336864	-0.27022886
2862	28.61000000	-0.90015530	-0.22201846	0.12042864	-0.52867447	0.27349908	-0.72450109	-0.75730300	-0.38117635	-0.17104906	-0.83076891	-0.20728688	-0.03256782	-0.46818957	0.67039147	0.16871243	-0.59594440	0.53201571	0.24752724	-0.57703890	0.00444495	-0.54688702	-0.80023674	-0.05697291	-0.26581530
2863	28.62000000	-0.90215603	-0.21830985	0.12193270	-0.52814303	0.27044742	-0.72433900	-0.75248854	-0.39723758	-0.14677143	-0.82759253	-0.20239169	-0.02554618	-0.45775031	0.68453798	0.16324006	-0.58751960	0.54513310	0.24703959	-0.60788143	-0.01388807	-0.50659085	-0.80628450	-0.05427049	-0.25499099
2864	28.63000000	-0.90670882	-0.20778196	0.11939459	-0.52867586	0.27342699	-0.72611336	-0.75013052	-0.41205172	-0.14039290	-0.82693087	-0.19853202	-0.02168319	-0.45081728	0.68429130	0.16347925	-0.58841253	0.54372907	0.24079789	-0.62281608	-0.02500393	-0.48611004	-0.81330643	-0.05263960	-0.24599085
2865	28.64000000	-0.90724162	-0.20509220	0.12338777	-0.52226870	0.26439364	-0.73521375	-0.73962219	-0.42881112	-0.13831458	-0.82935611	-0.19253448	-0.00810797	-0.43852085	0.70162990	0.14972358	-0.59396906	0.55129035	0.23814778	-0.63922784	-0.03812847	-0.46780526	-0.81857655	-0.04643734	-0.22929843
2866	28.65000000	-0.90895855	-0.19915366	0.11937397	-0.51995173	0.27442106	-0.73190732	-0.73071698	-0.44351604	-0.12320431	-0.83154332	-0.18635916	-0.00510198	-0.42891604	0.70280750	0.14400134	-0.58581915	0.55644391	0.23003219	-0.64993909	-0.03709699	-0.44488089	-0.81641949	-0.03806188	-0.20642400
2867	28.66000000	-0.91375355	-0.19461616	0.11847092	-0.51739639	0.26735062	-0.73115283	-0.71959988	-0.46016620	-0.10477058	-0.83405276	-0.18043799	-0.00342963	-0.42093222	0.71241707	0.14128194	-0.58692909	0.55853653	0.21809434	-0.66429663	-0.04045840	-0.42796636	-0.82499944	-0.02891630	-0.19260260
